<mxfile host="app.diagrams.net" modified="2023-11-18T07:19:17.074Z" agent="Mozilla/5.0 (Macintosh; Intel Mac OS X 10_15_7) AppleWebKit/537.36 (KHTML, like Gecko) Chrome/119.0.0.0 Safari/537.36" etag="3J3FmLFYmB9oVvhy67JS" version="22.1.3" type="github">
  <diagram name="Page-1" id="AUztKt-EoCyz3Mw4VYzb">
    <mxGraphModel dx="867" dy="454" grid="1" gridSize="10" guides="1" tooltips="1" connect="1" arrows="1" fold="1" page="1" pageScale="1" pageWidth="827" pageHeight="1169" math="0" shadow="0">
      <root>
        <mxCell id="0" />
        <mxCell id="1" parent="0" />
        <mxCell id="zybPVMcjjCwOoZasb48h-1" value="" style="whiteSpace=wrap;html=1;aspect=fixed;" vertex="1" parent="1">
          <mxGeometry x="390" y="210" width="230" height="230" as="geometry" />
        </mxCell>
        <mxCell id="zybPVMcjjCwOoZasb48h-4" value="" style="shape=datastore;whiteSpace=wrap;html=1;" vertex="1" parent="1">
          <mxGeometry x="480" y="340" width="60" height="60" as="geometry" />
        </mxCell>
        <mxCell id="zybPVMcjjCwOoZasb48h-6" value="" style="shape=hexagon;perimeter=hexagonPerimeter2;whiteSpace=wrap;html=1;fixedSize=1;" vertex="1" parent="1">
          <mxGeometry x="450" y="225" width="120" height="80" as="geometry" />
        </mxCell>
        <mxCell id="zybPVMcjjCwOoZasb48h-3" value="Server (Node JS)" style="text;html=1;strokeColor=none;fillColor=none;align=center;verticalAlign=middle;whiteSpace=wrap;rounded=0;" vertex="1" parent="1">
          <mxGeometry x="480" y="250" width="60" height="30" as="geometry" />
        </mxCell>
        <mxCell id="zybPVMcjjCwOoZasb48h-9" value="" style="edgeStyle=orthogonalEdgeStyle;rounded=0;orthogonalLoop=1;jettySize=auto;html=1;" edge="1" parent="1" source="zybPVMcjjCwOoZasb48h-5" target="zybPVMcjjCwOoZasb48h-8">
          <mxGeometry relative="1" as="geometry" />
        </mxCell>
        <mxCell id="zybPVMcjjCwOoZasb48h-5" value="" style="shape=actor;whiteSpace=wrap;html=1;" vertex="1" parent="1">
          <mxGeometry x="80" y="295" width="40" height="60" as="geometry" />
        </mxCell>
        <mxCell id="zybPVMcjjCwOoZasb48h-10" value="" style="edgeStyle=orthogonalEdgeStyle;rounded=0;orthogonalLoop=1;jettySize=auto;html=1;" edge="1" parent="1" source="zybPVMcjjCwOoZasb48h-8" target="zybPVMcjjCwOoZasb48h-1">
          <mxGeometry relative="1" as="geometry" />
        </mxCell>
        <mxCell id="zybPVMcjjCwOoZasb48h-8" value="Frontend" style="whiteSpace=wrap;html=1;" vertex="1" parent="1">
          <mxGeometry x="200" y="295" width="120" height="60" as="geometry" />
        </mxCell>
        <mxCell id="zybPVMcjjCwOoZasb48h-11" value="Users" style="text;html=1;strokeColor=none;fillColor=none;align=center;verticalAlign=middle;whiteSpace=wrap;rounded=0;" vertex="1" parent="1">
          <mxGeometry x="70" y="355" width="60" height="30" as="geometry" />
        </mxCell>
      </root>
    </mxGraphModel>
  </diagram>
</mxfile>
